<svg xmlns="http://www.w3.org/2000/svg" width="12" height="14" viewBox="0 0 12 14">
    <g fill="none" fill-rule="evenodd">
        <g fill="#000" fill-rule="nonzero">
            <g>
                <g>
                    <g>
                        <g>
                            <g>
                                <path d="M11.952 5.685L6.35.08c-.053-.053-.124-.082-.198-.082-.075 0-.146.03-.199.082L.368 5.685c-.08.08-.104.2-.06.305.043.104.145.172.258.172h3.08v7c0 .155.126.28.28.28h4.48c.155 0 .28-.125.28-.28v-7h3.068c.114 0 .215-.068.26-.173.043-.105.018-.224-.062-.304z" transform="translate(-675 -630) translate(410 190) translate(144 323) translate(60 82) translate(61 30) translate(0 5)"/>
                            </g>
                        </g>
                    </g>
                </g>
            </g>
        </g>
    </g>
</svg>
