<svg xmlns="http://www.w3.org/2000/svg" width="24" height="24" viewBox="0 0 24 24">
    <g fill="none" fill-rule="evenodd">
        <g fill="#000" fill-rule="nonzero">
            <g>
                <g>
                    <g>
                        <path d="M12 0C5.373 0 0 5.373 0 12s5.373 12 12 12 12-5.373 12-12c0-3.183-1.264-6.235-3.515-8.485C18.235 1.265 15.183 0 12 0zm4.964 12.905l-6.546 4.364c-.334.22-.762.24-1.115.05-.353-.188-.574-.555-.576-.955V7.636c.002-.4.223-.767.576-.956.353-.189.78-.17 1.115.05l6.546 4.365c.301.202.482.542.482.905s-.18.703-.482.905z" transform="translate(-568 -382) translate(410 190) translate(144 178) translate(14 14)"/>
                    </g>
                </g>
            </g>
        </g>
    </g>
</svg>
