<svg xmlns="http://www.w3.org/2000/svg" width="24" height="24" viewBox="0 0 24 24">
    <g fill="none" fill-rule="evenodd">
        <g fill="#FFF" fill-rule="nonzero">
            <g>
                <g>
                    <path d="M7.2 7.2H16.8V16.8H7.2z" transform="translate(-578 -537) translate(410 190) translate(168 347)"/>
                    <path d="M22.8 13.2c.72 0 1.2-.48 1.2-1.2 0-.6-.48-1.2-1.2-1.2h-1.2V8.4h1.2c.72 0 1.2-.48 1.2-1.2 0-.6-.48-1.2-1.2-1.2h-1.2V4.8c0-1.32-1.08-2.4-2.4-2.4H18V1.2c0-.6-.48-1.2-1.2-1.2-.6 0-1.2.48-1.2 1.2v1.2h-2.4V1.2C13.2.6 12.72 0 12 0s-1.2.48-1.2 1.2v1.2H8.4V1.2C8.4.6 7.92 0 7.2 0S6 .48 6 1.2v1.2H4.8c-1.32 0-2.4 1.08-2.4 2.4V6H1.2C.48 6 0 6.48 0 7.2c0 .6.48 1.2 1.2 1.2h1.2v2.4H1.2c-.72 0-1.2.48-1.2 1.2 0 .6.48 1.2 1.2 1.2h1.2v2.4H1.2c-.72 0-1.2.48-1.2 1.2 0 .6.48 1.2 1.2 1.2h1.2v1.2c0 1.32 1.08 2.4 2.4 2.4H6v1.2c0 .6.48 1.2 1.2 1.2s1.2-.48 1.2-1.2v-1.2h2.4v1.2c0 .6.48 1.2 1.2 1.2s1.2-.48 1.2-1.2v-1.2h2.4v1.2c0 .6.48 1.2 1.2 1.2.6 0 1.2-.48 1.2-1.2v-1.2h1.2c1.32 0 2.4-1.08 2.4-2.4V18h1.2c.72 0 1.2-.48 1.2-1.2 0-.6-.48-1.2-1.2-1.2h-1.2v-2.4h1.2zm-3.6 6H4.8V4.8h14.4v14.4z" transform="translate(-578 -537) translate(410 190) translate(168 347)"/>
                </g>
            </g>
        </g>
    </g>
</svg>
