<svg xmlns="http://www.w3.org/2000/svg" width="28" height="28" viewBox="0 0 28 28">
    <g fill="none" fill-rule="evenodd">
        <g fill="#000" fill-rule="nonzero">
            <g>
                <g>
                    <g>
                        <g>
                            <g>
                                <path d="M19.404 1.38c2.66 1.103 5.222 3.67 6.482 6.272 2.289 4.37 1.76 10.559-1.36 14.374-3.486 4.506-9.068 6.184-14.478 4.81-4.27-1.078-8.405-5.15-9.409-9.462-1.463-5.577.445-11.107 5.018-14.583C9.332-.03 15.181-.737 19.404 1.381zM2.417 7.914C.206 11.98.744 17.96 3.723 21.504c1.82 2.665 4.673 3.93 7.527 4.652 4.798.862 9.132-.764 12.283-4.391 3.021-3.44 3.774-9.178 1.777-13.329-.632-1.296-1.458-2.514-2.456-3.658-2.326-2.196-5.044-3.45-8.154-3.764-5.112-.313-9.874 2.3-12.283 6.9zm12.335-5.175c.09.418.56.878.157 1.307-.152.23-.256.476-.21.784.707.486.89-.904 1.726-.418.193-.167.387-.33.68-.261-.04.508.304.526.668.52l.182-.004c.15 0 .294.008.404.059.407-.084 1.113.23 1.15-.419.083.026.162.068.26.053.048.22-.161.45.158.522.36-.088.825.22.889-.261.114-.026.224.063.26.105l-.104.104c.298.288.596.105.994.157.094-.032.106-.119.106-.206v-.102c.003-.096.03-.163.207-.11.11.193-.02.48.21.627-.064.068-.158.068-.21.157.005.209.267.235.418.314h.314c-.008.023-.001.041.01.058l.042.046c-.904.33-2.414-.355-2.718.993-.214-.068-.319.194-.418.314-.199-.031-.324-.23-.523-.261-.036.867.403 1.667.837 2.404-.115.141-.256.23-.418.261-.544-.726-.758-1.589-1.098-2.404-.25.167.042.455-.052.732.041.177-.053.256-.21.261l-.993-.209c-.507.272-.69 1.223-1.41.993-.09.052-.131.214-.262.157l-.053-.052c-.355.14-.731.376-1.15.209-.214.052-.496-.047-.626.209-.09.491-.032 1.04-.157 1.516-.246-.068-.492.083-.523.313-.042.366.068.664.104.993l.418-.104c.257.517.79.92 1.098 1.411.34.424.884.852.889 1.464-.126.03-.209.172-.314.26-.01.44.476.675.627 1.046.47.523.643 1.166 1.15 1.673-.193 1.333.56 2.274.366 3.606-.115.983.716 1.579.993 2.405v.68c-.967.538-1.772-.252-2.509-.733-.596-.444-.282-1.071-.366-1.724-.407-1.202-.663-2.473-.993-3.711-.34-.601-1.129-1.025-1.359-1.673-.554-.617-.972-1.563-1.83-1.777-.198.063-.03.272-.156.366-.628 1.208-1.102 2.49-1.411 3.815-.46.805-.768 1.673-1.15 2.51-.507.125-1.14-.043-1.62.156.036.47.381.94.104 1.411-.486-.036-1.108.56-1.463-.104-.414-.176-.544-.568-.646-.98l-.067-.277c-.045-.184-.096-.363-.176-.52.178-.81.904-1.396 1.36-2.091.329-.21.804-.183.992-.627.35-1.861.93-3.622 1.516-5.384.042-.538-.538-1.009-.104-1.516-.063-.089-.183-.042-.262-.104.455-1.662.826-3.35.889-5.175.538-.721 1.03-1.552 1.777-2.09.089-.016.209.041.261-.053-.083-.899.01-1.95.941-2.404.847-.471 2.012-.132 2.404.783zm.681 3.232l-.263.009-.836.68c.094.167.324.23.523.26.313-.778 1.275-.23 1.568-.836-.251-.022-.49-.07-.74-.096l-.252-.017z" transform="translate(-442 -386) translate(410 190) translate(0 32) translate(14 146) translate(9 9) translate(9 9)"/>
                            </g>
                        </g>
                    </g>
                </g>
            </g>
        </g>
    </g>
</svg>
