<svg xmlns="http://www.w3.org/2000/svg" width="302" height="32" viewBox="0 0 302 32">
    <g fill="none" fill-rule="evenodd">
        <g fill="#FFF" fill-rule="nonzero">
            <g>
                <g>
                    <path d="M0 4.235C0 2.118 2.118 0 4.235 0h11.953c2.118 0 4.236 2.118 4.236 4.235H4.988v10.447h15.436c0 2.118-2.118 4.236-4.236 4.236H4.235C2.118 18.918 0 16.8 0 14.682V4.235zm22.682 0C22.682 2.118 24.8 0 26.918 0h12.611c2.118 0 4.236 2.118 4.236 4.235v10.447c0 2.118-2.118 4.236-4.236 4.236H26.918c-2.118 0-4.236-2.118-4.236-4.236V4.235zm4.8 0v10.447h11.483V4.235H27.482zM47.06 0c2.117 0 4.8 2.118 4.8 4.235v10.447H63.34V0h4.8v14.682c0 2.118-2.117 4.236-4.8 4.236H51.86c-2.683 0-4.8-2.118-4.8-4.236V0zm24.753 0c4.612 0 6.4 1.668 8.188 3.335l9.788 9.128V4.235C89.788 2.118 92.094 0 94.4 0v18.918h-4.612L76.424 6.455v12.463h-4.612V0zm23.906 4.235C95.718 2.118 97.835 0 99.953 0h17.13c0 2.118-2.118 4.235-4.236 4.235h-4.235v14.683H104V4.235h-8.282zM118.494 0h18.353c0 2.118-2.118 4.235-4.235 4.235h-9.318v3.106h11.388c0 2.118-2.117 4.235-4.235 4.235h-7.153v3.106h13.553c0 2.118-2.118 4.236-4.235 4.236h-14.118V0zm20.988 0h13.27c5.272 0 6.495 2.118 6.495 6.024v1.035c0 3.012-.74 4.99-3.541 5.71l5.518 6.713h-5.365c-.676 0-1.122-.282-1.351-.564l-8.155-10.07h6.4c.894 0 1.788-.66 1.788-1.319V5.553c0-.659-.894-1.318-1.788-1.318h-8.565v14.683h-4.706V0zm25.13 7.341h10.353v4.235h-10.353V7.341zm15.717-3.106c0-2.117 2.4-4.235 4.8-4.235h11.483c2.4 0 4.8 2.118 4.8 4.235h-16.283v3.106h11.483c2.4 0 4.8 2.118 4.8 4.235v3.106c0 2.118-2.4 4.236-4.8 4.236h-11.483c-2.4 0-4.8-2.118-4.8-4.236h16.283v-3.106h-11.483c-2.4 0-4.8-2.117-4.8-4.235V4.235zm21.93 0c0-2.117 2.117-4.235 4.235-4.235h17.13c0 2.118-2.118 4.235-4.236 4.235h-4.235v14.683h-4.612V4.235h-8.282zM225.224 0h13.27c5.27 0 6.494 2.118 6.494 6.024v1.035c0 3.012-.739 4.99-3.54 5.71l5.517 6.713H241.6c-.675 0-1.122-.282-1.35-.564l-8.156-10.07h6.4c.894 0 1.788-.66 1.788-1.319V5.553c0-.659-.894-1.318-1.788-1.318h-8.565v14.683h-4.705V0zm24.752 0h4.706v18.918h-4.706V0zm9.695 0h4.611v7.341h.66L273.881 0h6.777l-10.541 9.318 12.33 9.6h-6.777c-.895 0-1.175-.443-1.789-.886l-8.94-6.738h-.66v7.624h-4.611V0zm23.153 0h18.352c0 2.118-2.117 4.235-4.235 4.235h-9.317v3.106h11.388c0 2.118-2.118 4.235-4.236 4.235h-7.152v3.106h13.552c0 2.118-2.117 4.236-4.235 4.236h-14.117V0zm-95.438 28.4h2.932l.02 1.322c0 .962-.182 1.584-.547 1.863-.36.277-1.169.415-2.424.415-1.152 0-1.914-.185-2.288-.556-.374-.37-.561-1.127-.561-2.269 0-1.457.074-2.377.224-2.761.185-.468.467-.784.844-.947.377-.162 1.018-.243 1.922-.243 1.184 0 1.948.126 2.293.38.345.25.517.808.517 1.673h-1.278c-.023-.435-.119-.705-.288-.81-.166-.107-.585-.16-1.258-.16-.732 0-1.197.09-1.396.273-.195.182-.292.61-.292 1.283l-.005.668.01.854c0 .66.097 1.081.292 1.264.195.178.647.268 1.356.268.69 0 1.127-.076 1.313-.23.188-.152.283-.513.283-1.082l.005-.274h-1.674V28.4zm5.79-3.176h1.271v5.647h3.012V32h-4.283v-6.776zm9.72 0c1.209 0 1.988.201 2.336.604.348.4.522 1.298.522 2.694 0 1.525-.176 2.486-.527 2.883-.348.397-1.194.595-2.537.595-1.21 0-1.992-.195-2.346-.585-.355-.394-.532-1.258-.532-2.591 0-1.587.174-2.584.522-2.99.348-.407 1.202-.61 2.561-.61zm-.098 1.083c-.85 0-1.345.109-1.488.326-.144.218-.215.973-.215 2.264 0 .956.083 1.532.249 1.727.169.195.663.293 1.483.293.784 0 1.254-.109 1.41-.327.156-.221.234-.888.234-2 0-1.116-.075-1.774-.225-1.976-.146-.205-.629-.307-1.448-.307zM208.47 32v-6.776h3.33c.782 0 1.313.125 1.594.377.285.248.427.718.427 1.41 0 .837-.332 1.33-.998 1.48v.024c.775.12 1.162.657 1.162 1.613 0 .692-.149 1.177-.447 1.455-.298.278-.817.417-1.559.417h-3.51zm1.285-3.932h1.574c.51 0 .834-.056.973-.169.142-.112.214-.372.214-.78 0-.542-.308-.813-.924-.813h-1.837v1.762zm0 2.85h1.41l.452-.01c.434 0 .718-.061.854-.184.139-.122.208-.38.208-.774 0-.41-.072-.669-.218-.775-.142-.106-.496-.159-1.062-.159h-1.644v1.902zM216.141 32l2.306-6.776h1.882L222.59 32h-1.413l-.395-1.27h-2.785L217.6 32h-1.459zm2.163-2.259h2.169l-1.085-3.482-1.084 3.482zm6.778-4.517h1.27v5.647h3.013V32h-4.283v-6.776zm14.19 0c1.21 0 1.988.201 2.336.604.348.4.522 1.298.522 2.694 0 1.525-.175 2.486-.526 2.883-.348.397-1.194.595-2.537.595-1.21 0-1.992-.195-2.347-.585-.355-.394-.532-1.258-.532-2.591 0-1.587.174-2.584.522-2.99.348-.407 1.202-.61 2.562-.61zm-.098 1.083c-.849 0-1.345.109-1.488.326-.143.218-.215.973-.215 2.264 0 .956.083 1.532.25 1.727.168.195.663.293 1.482.293.784 0 1.254-.109 1.41-.327.156-.221.234-.888.234-2 0-1.116-.074-1.774-.224-1.976-.146-.205-.63-.307-1.449-.307zm5.767-1.083h4.377v1.223h-3.106v1.788h2.917v1.036h-2.917V32h-1.27v-6.776zm7.106 0h4.377v1.223h-3.106v1.788h2.917v1.036h-2.917V32h-1.27v-6.776zm6.965 0h4.612v1.129h-3.342v1.694h3.153v1.035h-3.153v1.789h3.342V32h-4.612v-6.776zm7.435 0h2.165l2.776 5.552v-5.552h1.27V32h-2.164l-2.776-5.553V32h-1.27v-6.776zm14.25 2h-1.234c-.006-.062-.01-.108-.01-.137-.029-.374-.112-.608-.248-.702-.137-.098-.459-.147-.966-.147-.599 0-.99.056-1.176.166-.182.11-.273.343-.273.698 0 .42.075.671.224.756.15.085.644.15 1.483.195.992.055 1.633.197 1.923.425.292.227.439.7.439 1.42 0 .884-.171 1.456-.513 1.717-.341.257-1.094.385-2.258.385-1.048 0-1.744-.127-2.089-.38-.341-.254-.512-.768-.512-1.542l-.005-.244h1.23l.005.141c0 .465.081.75.244.854.162.104.606.156 1.331.156.566 0 .927-.06 1.084-.18.156-.12.234-.399.234-.835 0-.322-.06-.535-.18-.639-.118-.107-.373-.172-.767-.195l-.697-.044c-1.054-.061-1.727-.208-2.02-.439-.293-.23-.44-.727-.44-1.488 0-.777.176-1.294.528-1.551.354-.26 1.06-.39 2.117-.39 1.002 0 1.677.118 2.025.356.348.237.522.7.522 1.39v.254zm3.02-2h1.271V32h-1.27v-6.776zm3.718 0h1.365l1.788 5.6 1.788-5.6h1.365L291.576 32H289.6l-2.165-6.776zm8.612 0h4.612v1.129h-3.341v1.694h3.153v1.035h-3.153v1.789h3.34V32h-4.61v-6.776z" transform="translate(-554 -284) translate(410 190) translate(144 94)"/>
                </g>
            </g>
        </g>
    </g>
</svg>
