<svg xmlns="http://www.w3.org/2000/svg" width="23" height="23" viewBox="0 0 23 23">
    <g fill="none" fill-rule="evenodd">
        <g fill="#000" fill-rule="nonzero">
            <g>
                <g>
                    <g>
                        <g>
                            <g>
                                <path d="M22.841 0h-2.834l-1.18.59L17.645 0H12.09l-1.338.67h-3.7L5.714 0H0v10.752l.67 1.338v3.699L0 17.127v5.714h11.42l1.181-.59 1.18.59h9.06v-9.06l-.59-1.18.59-1.18V0zM6.023 18.826L4.015 16.82v-4.015l6.023 6.022H6.023zm12.134 0H15.48l-1.734-2.038-.358-1.453-1.377-.586-.59-.693-7.406-8.703 1.338-1.338 6.068 4.56 7.405 5.567-.669 4.684zm.67-8.788l-6.023-6.023h4.015l2.007 2.008v4.015z" transform="translate(-445 -444) translate(410 190) translate(0 32) translate(14 146) translate(9 64) translate(12 12)"/>
                            </g>
                        </g>
                    </g>
                </g>
            </g>
        </g>
    </g>
</svg>
