<svg xmlns="http://www.w3.org/2000/svg" width="16" height="16" viewBox="0 0 16 16">
    <g fill="none" fill-rule="evenodd">
        <g fill="#000" fill-rule="nonzero">
            <g>
                <g>
                    <g>
                        <path d="M8 0C3.589 0 0 3.589 0 8c0 4.412 3.589 8 8 8 1.631 0 3.194-.482 4.522-1.393l-.905-1.318C10.556 14.015 9.307 14.4 8 14.4c-3.529 0-6.4-2.871-6.4-6.4 0-3.529 2.871-6.4 6.4-6.4 3.529 0 6.4 2.871 6.4 6.4v.626c0 1.11-.478 1.774-1.28 1.774l-.002.014c-.048-.01-.1-.014-.15-.014H12.8c-.45 0-1.12-.654-1.12-1.095V8c0-2.029-1.65-3.68-3.68-3.68-2.03 0-3.68 1.65-3.68 3.68 0 2.03 1.65 3.68 3.68 3.68.987 0 1.88-.395 2.542-1.03.519.765 1.402 1.35 2.258 1.35l.002-.015c.05.01.101.015.154.015h.164C14.842 12 16 10.645 16 8.626V8c0-4.411-3.589-8-8-8zm0 10.08c-1.147 0-2.08-.934-2.08-2.08 0-1.148.933-2.08 2.08-2.08s2.08.932 2.08 2.08c0 1.146-.933 2.08-2.08 2.08z" transform="translate(-1032 -550) translate(554 462) translate(464 75) translate(14 13)"/>
                    </g>
                </g>
            </g>
        </g>
    </g>
</svg>
