<svg xmlns="http://www.w3.org/2000/svg" width="28" height="26" viewBox="0 0 28 26">
    <g fill="none" fill-rule="evenodd">
        <g fill="#fff" fill-rule="nonzero">
            <g>
                <g>
                    <g>
                        <g>
                            <path d="M23.5 0h-19C2.016.003.003 2.016 0 4.5v12c.003 2.484 2.016 4.497 4.5 4.5H6v4c0 .388.224.741.576.906.352.165.767.11 1.065-.138L13.359 21H23.5c2.484-.003 4.497-2.016 4.5-4.5v-12C27.997 2.016 25.984.003 23.5 0zM8 12.5c-1.105 0-2-.895-2-2s.895-2 2-2 2 .895 2 2-.895 2-2 2zm6 0c-1.105 0-2-.895-2-2s.895-2 2-2 2 .895 2 2-.895 2-2 2zm6 0c-1.105 0-2-.895-2-2s.895-2 2-2 2 .895 2 2-.895 2-2 2z" transform="translate(-442 -832) translate(410 190) translate(0 32) translate(32 604) translate(0 6)"/>
                        </g>
                    </g>
                </g>
            </g>
        </g>
    </g>
</svg>
