<svg xmlns="http://www.w3.org/2000/svg" width="15" height="16" viewBox="0 0 15 16">
    <g fill="none" fill-rule="evenodd">
        <g fill="#000">
            <g>
                <g>
                    <g>
                        <g>
                            <path d="M2.667 0c-.491 0-.89.398-.89.889v1.04C.743 2.297 0 3.284 0 4.445c0 1.162.742 2.15 1.778 2.515v8.152c0 .491.398.889.889.889.49 0 .889-.398.889-.889V6.96c1.035-.366 1.777-1.353 1.777-2.515 0-1.16-.742-2.148-1.777-2.514V.889c0-.491-.398-.889-.89-.889zm.889 4.444c0 .491-.398.89-.89.89-.49 0-.888-.399-.888-.89 0-.49.398-.888.889-.888.49 0 .889.398.889.888zM11.556 0c-.491 0-.89.398-.89.889v7.263c-1.035.366-1.777 1.354-1.777 2.515 0 1.16.742 2.149 1.778 2.515v1.93c0 .49.398.888.889.888.49 0 .888-.398.888-.889v-1.93c1.036-.365 1.778-1.353 1.778-2.514 0-1.161-.742-2.15-1.778-2.515V.889c0-.491-.398-.889-.888-.889zm.888 10.667c0 .49-.398.889-.888.889-.491 0-.89-.398-.89-.89 0-.49.399-.888.89-.888.49 0 .888.398.888.889z" transform="translate(-571 -578) translate(554 462) translate(0 51) translate(0 49) translate(17 16)"/>
                        </g>
                    </g>
                </g>
            </g>
        </g>
    </g>
</svg>
