<svg xmlns="http://www.w3.org/2000/svg" width="14" height="18" viewBox="0 0 14 18">
    <g fill="none" fill-rule="evenodd">
        <g fill="#FFF">
            <g>
                <g>
                    <path d="M8.521.799c.963-.102 1.947.146 2.685.572.738.425 1.444 1.154 1.837 2.038.404.91.491 2.03-.13 3.104l-4.05 7.015c-.222.385-.654.881-1.284 1.165-.681.307-1.526.33-2.404-.177-.878-.506-1.28-1.25-1.355-1.993-.07-.688.145-1.31.367-1.695l3.6-6.235c.248-.43.799-.578 1.23-.33.43.249.577.8.329 1.23l-3.6 6.235c-.078.135-.158.382-.135.614.018.176.094.402.464.615.37.214.604.167.765.095.212-.096.386-.289.464-.424l4.05-7.015c.28-.484.262-.983.044-1.472-.228-.514-.66-.963-1.092-1.212-.431-.249-1.037-.4-1.596-.34-.532.056-.973.29-1.253.774l-4.5 7.794c-.589 1.02-.257 2.97 1.768 4.139s3.879.481 4.468-.539l3.15-5.455c.248-.431.799-.578 1.23-.33.43.249.577.799.329 1.23l-3.15 5.455c-1.212 2.098-4.275 2.728-6.927 1.198-2.652-1.531-3.638-4.5-2.427-6.598l4.5-7.794C6.52 1.388 7.533.903 8.522.8z" transform="translate(-1065 -836) translate(554 462) translate(511 374)"/>
                </g>
            </g>
        </g>
    </g>
</svg>
