<svg xmlns="http://www.w3.org/2000/svg" width="28" height="27" viewBox="0 0 28 27">
    <g fill="none" fill-rule="evenodd">
        <g fill="#000" fill-rule="nonzero">
            <g>
                <g>
                    <g>
                        <g>
                            <g>
                                <path d="M13.846.001c-3.132.02-6.228 1.103-8.66 3.007L7.842 6c2.244-1.717 5.266-2.416 8.07-1.876 1.54.288 3.007.944 4.244 1.876l2.658-2.992C20.299 1.038 17.086-.046 13.846 0z" transform="translate(-442 -496) translate(410 190) translate(0 32) translate(14 146) translate(9 119) translate(9 9)"/>
                                <path d="M4.37 4.12C1.582 6.598-.05 10.2 0 13.836c.002 3.772 1.82 7.478 4.837 9.929 2.79 2.31 6.584 3.487 10.288 3.19 4.014-.283 7.824-2.314 10.18-5.398 2.292-2.93 3.19-6.796 2.429-10.38-.56-2.744-2.079-5.287-4.24-7.177l-2.643 2.907c2.13 1.902 3.294 4.709 3.074 7.478-.096 1.372-.516 2.726-1.228 3.931l-5.388-4.929-2.72-5.55-.003 8.405 5.445 4.99c-2.426 1.785-5.756 2.377-8.706 1.586-1.202-.317-2.34-.85-3.328-1.564l5.483-5.012c-.01-2.733.033-5.682 0-8.413l-2.723 5.558-5.435 4.97c-1.658-2.74-1.698-6.284-.102-9.056.499-.888 1.16-1.698 1.925-2.394L4.502 4l-.133.12z" transform="translate(-442 -496) translate(410 190) translate(0 32) translate(14 146) translate(9 119) translate(9 9)"/>
                            </g>
                        </g>
                    </g>
                </g>
            </g>
        </g>
    </g>
</svg>
