<svg xmlns="http://www.w3.org/2000/svg" width="19" height="22" viewBox="0 0 19 22">
    <g fill="none" fill-rule="evenodd">
        <g fill="#FFF" fill-rule="nonzero">
            <g>
                <g>
                    <g>
                        <path d="M18.333 5.5V3.669H16.5V.918C16.5.41 16.09 0 15.583 0H2.75c-.506 0-.917.41-.917.917V2.75H0v1.833h1.833v2.75H0v1.834h1.833v2.75H0v1.833h1.833v2.75H0v1.833h1.833v2.75c0 .507.411.917.917.917h12.833c.506 0 .917-.41.917-.917v-1.833h1.833v-1.833H16.5v-2.75h1.833v-1.834H16.5v-2.75h1.833V8.251H16.5V5.5h1.833zM13.75 18.335c0 .507-.41.917-.917.917H5.5c-.506 0-.917-.41-.917-.917V3.668c0-.507.411-.917.917-.917h7.333c.506 0 .917.41.917.917v14.666z" transform="translate(-1202 -537) translate(410 190) translate(768 323) translate(24 24)"/>
                        <path d="M7.333 14.668H11V16.500999999999998H7.333zM7.333 5.501H11V7.3340000000000005H7.333z" transform="translate(-1202 -537) translate(410 190) translate(768 323) translate(24 24)"/>
                    </g>
                </g>
            </g>
        </g>
    </g>
</svg>
