<svg xmlns="http://www.w3.org/2000/svg" width="24" height="24" viewBox="0 0 24 24">
    <g fill="none" fill-rule="evenodd" opacity="1">
        <g fill="#000">
            <g>
                <g>
                    <g>
                        <path d="M11.25 0c-.828 0-1.5.672-1.5 1.5l-.18 1.26c-.161 1.13-1.473 1.672-2.385.988l-1.019-.764c-.585-.585-1.535-.585-2.12 0L2.983 4.045c-.585.586-.585 1.536 0 2.121l.764 1.019c.684.912.141 2.224-.988 2.385l-1.26.18c-.828 0-1.5.672-1.5 1.5v1.5c0 .828.672 1.5 1.5 1.5l1.26.18c1.13.161 1.672 1.473.988 2.385l-.764 1.019c-.585.585-.585 1.535 0 2.12l1.061 1.062c.586.585 1.536.585 2.121 0l1.019-.764c.912-.684 2.224-.141 2.385.987l.18 1.261c0 .828.672 1.5 1.5 1.5h1.5c.828 0 1.5-.672 1.5-1.5l.18-1.26c.161-1.13 1.473-1.672 2.385-.988l1.019.764c.585.585 1.535.585 2.12 0l1.062-1.061c.585-.586.585-1.536 0-2.121l-.764-1.02c-.684-.911-.141-2.223.987-2.384l1.261-.18c.828 0 1.5-.672 1.5-1.5v-1.5c0-.828-.672-1.5-1.5-1.5l-1.26-.18c-1.13-.161-1.672-1.473-.988-2.385l.764-1.019c.585-.585.585-1.535 0-2.12l-1.061-1.062c-.586-.585-1.536-.585-2.121 0l-1.02.764c-.911.684-2.223.141-2.384-.987L14.25 1.5c0-.828-.672-1.5-1.5-1.5h-1.5zM12 15c1.657 0 3-1.343 3-3s-1.343-3-3-3-3 1.343-3 3 1.343 3 3 3z" transform="translate(-756 -382) translate(410 190) translate(332 178) translate(14 14)"/>
                    </g>
                </g>
            </g>
        </g>
    </g>
</svg>
