<svg xmlns="http://www.w3.org/2000/svg" width="12" height="24" viewBox="0 0 12 24">
    <g fill="none" fill-rule="evenodd">
        <g fill-rule="nonzero">
            <g>
                <g>
                    <g>
                        <g>
                            <path fill="#FFF" d="M8.922 13.324V3.563c0-1.727-1.4-3.127-3.127-3.127-1.726 0-3.126 1.4-3.126 3.127v9.761C.626 14.7-.28 17.25.439 19.604c.72 2.356 2.893 3.965 5.356 3.965s4.637-1.609 5.356-3.965c.72-2.355-.186-4.904-2.229-6.28zm-3.127 8.93c-1.94.001-3.639-1.302-4.142-3.176-.502-1.874.316-3.852 1.997-4.823.202-.117.327-.333.327-.567V3.563c.001-1.004.815-1.817 1.818-1.818.48-.003.94.186 1.28.525.345.342.539.807.538 1.293v10.125c0 .234.125.45.327.567 1.68.97 2.5 2.948 1.997 4.822-.503 1.875-2.201 3.178-4.142 3.178z" opacity=".4" transform="translate(-1056 -544) translate(410 190) translate(456 323) translate(190 24) translate(0 7)"/>
                            <path fill="#0091FF" d="M9.068 17.977c0 1.722-1.334 3.15-3.053 3.266-1.718.116-3.232-1.12-3.463-2.827-.23-1.707.901-3.3 2.589-3.645V7.09c0-.362.293-.655.654-.655.362 0 .655.293.655.655v7.68c1.524.31 2.618 1.651 2.618 3.206z" transform="translate(-1056 -544) translate(410 190) translate(456 323) translate(190 24) translate(0 7)"/>
                        </g>
                    </g>
                </g>
            </g>
        </g>
    </g>
</svg>
